<svg width="33" height="33" viewBox="0 0 33 33" fill="none" xmlns="http://www.w3.org/2000/svg">
<path d="M19.3763 16.0088C19.3763 15.2761 19.096 14.5424 18.5367 13.9831C17.9774 13.4237 17.2438 13.1437 16.5106 13.1437C15.778 13.1437 15.0444 13.4237 14.4849 13.9831C13.9256 14.5424 13.6459 15.2761 13.6459 16.0088C13.6459 16.742 13.9256 17.475 14.4849 18.0343C15.0444 18.594 15.778 18.8739 16.5106 18.8739C17.2438 18.8739 17.9774 18.594 18.5367 18.0343C19.096 17.4752 19.3763 16.742 19.3763 16.0088ZM19.7955 12.7243C20.7023 13.6311 21.1555 14.8199 21.1555 16.0088C21.1555 17.1975 20.7025 18.3862 19.7955 19.2931C18.8883 20.2 17.6993 20.6539 16.5106 20.6539C15.3223 20.6539 14.133 20.2 13.2261 19.2931C12.3193 18.3862 11.8661 17.1975 11.8661 16.0088C11.8661 14.8199 12.3191 13.6311 13.2261 12.7243C14.133 11.8174 15.3223 11.3639 16.5106 11.3639C17.6993 11.3639 18.8883 11.8174 19.7955 12.7243Z" fill="#697586"/>
<path d="M23.8867 24.6429L17.14 31.3887L16.5106 32.0181L15.8818 31.3887L9.13547 24.6429L10.3943 23.384L16.5106 29.5003L22.628 23.384" fill="#642EFE"/>
<path d="M18.9458 4.95244L16.5106 2.51721L14.0757 4.95244C14.8775 4.77657 15.6936 4.68909 16.5106 4.68909C17.3274 4.68909 18.144 4.77638 18.9458 4.95244ZM17.14 0.629407L23.8867 7.37519L22.6279 8.63416L22.6066 8.61288L22.5978 8.66295C20.8373 7.20005 18.6742 6.46888 16.5108 6.46888C14.3477 6.46888 12.1846 7.20024 10.4235 8.66295L10.4147 8.61362L10.3944 8.63416L9.13559 7.37519L15.8819 0.629407L16.5109 1.52588e-05L17.14 0.629407Z" fill="#642EFE"/>
<path d="M5.45242 13.5657L3.0172 16.0005L5.45242 18.4354C5.27655 17.634 5.18908 16.8175 5.18908 16.0005C5.18908 15.1835 5.27655 14.3669 5.45242 13.5657ZM1.12939 15.371L7.87481 8.62517L9.13359 9.88395L9.11287 9.90486L9.16294 9.91274C7.70004 11.6738 6.96887 13.8373 6.96887 16.0003C6.96887 18.1634 7.70022 20.3269 9.16294 22.0874L9.1136 22.0962L9.13359 22.1166L7.87481 23.3755L1.12939 16.6292L0.5 16.0002L1.12939 15.371Z" fill="#25C8CE"/>
<path d="M27.5479 18.4202L29.9832 15.9849L27.5479 13.5501C27.7235 14.3519 27.8113 15.1679 27.8113 15.9849C27.8113 16.8018 27.7235 17.6182 27.5479 18.4202ZM31.8706 16.6143L25.1254 23.3607L23.8664 22.1017L23.8877 22.0804L23.8371 22.0724C25.3 20.3115 26.0322 18.1482 26.0322 15.9848C26.0322 13.8217 25.3 11.6584 23.8371 9.89753L23.8868 9.88873L23.8662 9.86874L25.1252 8.60995L31.8704 15.3557L32.5 15.9848L31.8706 16.6143Z" fill="#25C8CE"/>
</svg>
