<svg width="20" height="20" viewBox="0 0 20 20" fill="none" xmlns="http://www.w3.org/2000/svg">
<path d="M10 12.509C11.3807 12.509 12.5 11.3897 12.5 10.009C12.5 8.62832 11.3807 7.50903 10 7.50903C8.61929 7.50903 7.5 8.62832 7.5 10.009C7.5 11.3897 8.61929 12.509 10 12.509Z" stroke="#9AA4B2" stroke-width="1.25" stroke-miterlimit="10" stroke-linecap="round" stroke-linejoin="round"/>
<path d="M1.66667 10.7424V9.27573C1.66667 8.40906 2.375 7.6924 3.25 7.6924C4.75833 7.6924 5.375 6.62573 4.61667 5.31739C4.18333 4.56739 4.44167 3.59239 5.2 3.15906L6.64167 2.33406C7.3 1.94239 8.15 2.17573 8.54167 2.83406L8.63333 2.99239C9.38333 4.30073 10.6167 4.30073 11.375 2.99239L11.4667 2.83406C11.8583 2.17573 12.7083 1.94239 13.3667 2.33406L14.8083 3.15906C15.5667 3.59239 15.825 4.56739 15.3917 5.31739C14.6333 6.62573 15.25 7.6924 16.7583 7.6924C17.625 7.6924 18.3417 8.40073 18.3417 9.27573V10.7424C18.3417 11.6091 17.6333 12.3257 16.7583 12.3257C15.25 12.3257 14.6333 13.3924 15.3917 14.7007C15.825 15.4591 15.5667 16.4257 14.8083 16.8591L13.3667 17.6841C12.7083 18.0757 11.8583 17.8424 11.4667 17.1841L11.375 17.0257C10.625 15.7174 9.39167 15.7174 8.63333 17.0257L8.54167 17.1841C8.15 17.8424 7.3 18.0757 6.64167 17.6841L5.2 16.8591C4.44167 16.4257 4.18333 15.4507 4.61667 14.7007C5.375 13.3924 4.75833 12.3257 3.25 12.3257C2.375 12.3257 1.66667 11.6091 1.66667 10.7424Z" stroke="#9AA4B2" stroke-width="1.25" stroke-miterlimit="10" stroke-linecap="round" stroke-linejoin="round"/>
</svg>
