<svg width="16" height="17" viewBox="0 0 16 17" fill="none" xmlns="http://www.w3.org/2000/svg">
<path d="M14 4.00475C11.78 3.78475 9.54667 3.67142 7.32 3.67142C6 3.67142 4.68 3.73808 3.36 3.87142L2 4.00475" stroke="#D92D20" stroke-linecap="round" stroke-linejoin="round"/>
<path d="M5.66669 3.33142L5.81335 2.45808C5.92002 1.82475 6.00002 1.35142 7.12669 1.35142H8.87335C10 1.35142 10.0867 1.85142 10.1867 2.46475L10.3334 3.33142" stroke="#D92D20" stroke-linecap="round" stroke-linejoin="round"/>
<path d="M12.5667 6.11142L12.1334 12.8247C12.06 13.8714 12 14.6847 10.14 14.6847H5.86002C4.00002 14.6847 3.94002 13.8714 3.86668 12.8247L3.43335 6.11142" stroke="#D92D20" stroke-linecap="round" stroke-linejoin="round"/>
<path d="M6.88666 11.0181H9.10666" stroke="#D92D20" stroke-linecap="round" stroke-linejoin="round"/>
<path d="M6.33331 8.35141H9.66665" stroke="#D92D20" stroke-linecap="round" stroke-linejoin="round"/>
</svg>
